<mxfile host="app.diagrams.net" modified="2020-07-29T08:46:27.846Z" agent="5.0 (Windows NT 10.0; Win64; x64) AppleWebKit/537.36 (KHTML, like Gecko) Chrome/84.0.4147.89 Safari/537.36" etag="1qUCrvQMxstNsMKxGYG3" version="13.5.4" type="github">
  <diagram id="EjJYDLSV9XFof-tAEnRk" name="Page-1">
    <mxGraphModel dx="2272" dy="772" grid="1" gridSize="10" guides="1" tooltips="1" connect="1" arrows="1" fold="1" page="1" pageScale="1" pageWidth="850" pageHeight="1100" math="0" shadow="0">
      <root>
        <mxCell id="0" />
        <mxCell id="1" parent="0" />
        <mxCell id="HZPcw3k5yMHCah8m_Nfg-93" value="" style="edgeStyle=orthogonalEdgeStyle;rounded=0;orthogonalLoop=1;jettySize=auto;html=1;" edge="1" parent="1" source="HZPcw3k5yMHCah8m_Nfg-45" target="HZPcw3k5yMHCah8m_Nfg-10">
          <mxGeometry relative="1" as="geometry" />
        </mxCell>
        <mxCell id="HZPcw3k5yMHCah8m_Nfg-45" value="" style="whiteSpace=wrap;html=1;aspect=fixed;" vertex="1" parent="1">
          <mxGeometry x="305" y="10" width="460" height="460" as="geometry" />
        </mxCell>
        <mxCell id="HZPcw3k5yMHCah8m_Nfg-2" value="" style="shape=image;html=1;verticalAlign=top;verticalLabelPosition=bottom;labelBackgroundColor=#ffffff;imageAspect=0;aspect=fixed;image=https://cdn1.iconfinder.com/data/icons/hawcons/32/699585-icon-76-document-file-html-128.png" vertex="1" parent="1">
          <mxGeometry x="-160" y="68.5" width="128" height="128" as="geometry" />
        </mxCell>
        <mxCell id="HZPcw3k5yMHCah8m_Nfg-1" value="" style="shape=image;html=1;verticalAlign=top;verticalLabelPosition=bottom;labelBackgroundColor=#ffffff;imageAspect=0;aspect=fixed;image=https://cdn2.iconfinder.com/data/icons/oxygen/128x128/mimetypes/application-x-python.png" vertex="1" parent="1">
          <mxGeometry x="-220" y="110" width="128" height="128" as="geometry" />
        </mxCell>
        <mxCell id="HZPcw3k5yMHCah8m_Nfg-5" value="Cloud Run" style="html=1;fillColor=#5184F3;strokeColor=none;verticalAlign=top;labelPosition=center;verticalLabelPosition=bottom;align=center;spacingTop=-6;fontSize=11;fontStyle=1;fontColor=#999999;shape=mxgraph.gcp2.hexIcon;prIcon=cloud_run" vertex="1" parent="1">
          <mxGeometry x="470" y="350" width="120" height="100" as="geometry" />
        </mxCell>
        <mxCell id="HZPcw3k5yMHCah8m_Nfg-10" value="Web on internet" style="shape=image;html=1;verticalAlign=top;verticalLabelPosition=bottom;labelBackgroundColor=#ffffff;imageAspect=0;aspect=fixed;image=https://cdn4.iconfinder.com/data/icons/VistaICO_Toolbar-Icons/128/Web-page.png" vertex="1" parent="1">
          <mxGeometry x="471" y="560" width="128" height="128" as="geometry" />
        </mxCell>
        <mxCell id="HZPcw3k5yMHCah8m_Nfg-13" value="" style="endArrow=none;dashed=1;html=1;" edge="1" parent="1">
          <mxGeometry width="50" height="50" relative="1" as="geometry">
            <mxPoint x="-270" y="280" as="sourcePoint" />
            <mxPoint x="-270" y="10" as="targetPoint" />
          </mxGeometry>
        </mxCell>
        <mxCell id="HZPcw3k5yMHCah8m_Nfg-15" value="" style="endArrow=none;dashed=1;html=1;" edge="1" parent="1">
          <mxGeometry width="50" height="50" relative="1" as="geometry">
            <mxPoint x="20" y="280" as="sourcePoint" />
            <mxPoint x="-270" y="280" as="targetPoint" />
          </mxGeometry>
        </mxCell>
        <mxCell id="HZPcw3k5yMHCah8m_Nfg-17" value="Python3 / HTML" style="text;html=1;strokeColor=none;fillColor=none;align=center;verticalAlign=middle;whiteSpace=wrap;rounded=0;" vertex="1" parent="1">
          <mxGeometry x="-130" y="18.5" width="130" height="50" as="geometry" />
        </mxCell>
        <mxCell id="HZPcw3k5yMHCah8m_Nfg-24" value="" style="endArrow=none;dashed=1;html=1;" edge="1" parent="1">
          <mxGeometry width="50" height="50" relative="1" as="geometry">
            <mxPoint x="20" y="10" as="sourcePoint" />
            <mxPoint x="-270" y="10" as="targetPoint" />
          </mxGeometry>
        </mxCell>
        <mxCell id="HZPcw3k5yMHCah8m_Nfg-36" value="" style="aspect=fixed;perimeter=ellipsePerimeter;html=1;align=center;shadow=0;dashed=0;fontColor=#4277BB;labelBackgroundColor=#ffffff;fontSize=12;spacingTop=3;image;image=img/lib/ibm/devops/build_test.svg;" vertex="1" parent="1">
          <mxGeometry x="120" y="50" width="60" height="60" as="geometry" />
        </mxCell>
        <mxCell id="HZPcw3k5yMHCah8m_Nfg-42" value="" style="verticalLabelPosition=bottom;html=1;verticalAlign=top;align=center;strokeColor=none;fillColor=#00BEF2;shape=mxgraph.azure.github_code;pointerEvents=1;" vertex="1" parent="1">
          <mxGeometry x="-250" y="20" width="80" height="72" as="geometry" />
        </mxCell>
        <mxCell id="HZPcw3k5yMHCah8m_Nfg-44" value="" style="endArrow=none;dashed=1;html=1;" edge="1" parent="1">
          <mxGeometry width="50" height="50" relative="1" as="geometry">
            <mxPoint x="20" y="280" as="sourcePoint" />
            <mxPoint x="20" y="10" as="targetPoint" />
            <Array as="points">
              <mxPoint x="20" y="140" />
            </Array>
          </mxGeometry>
        </mxCell>
        <mxCell id="HZPcw3k5yMHCah8m_Nfg-60" value="" style="endArrow=classic;html=1;entryX=0;entryY=0.5;entryDx=0;entryDy=0;" edge="1" parent="1" target="HZPcw3k5yMHCah8m_Nfg-36">
          <mxGeometry width="50" height="50" relative="1" as="geometry">
            <mxPoint x="20" y="80" as="sourcePoint" />
            <mxPoint x="110" y="80" as="targetPoint" />
          </mxGeometry>
        </mxCell>
        <mxCell id="HZPcw3k5yMHCah8m_Nfg-61" value="" style="endArrow=classic;html=1;entryX=-0.009;entryY=0.154;entryDx=0;entryDy=0;entryPerimeter=0;exitX=1;exitY=0.5;exitDx=0;exitDy=0;" edge="1" parent="1" source="HZPcw3k5yMHCah8m_Nfg-36" target="HZPcw3k5yMHCah8m_Nfg-45">
          <mxGeometry width="50" height="50" relative="1" as="geometry">
            <mxPoint x="170" y="79.5" as="sourcePoint" />
            <mxPoint x="280" y="80" as="targetPoint" />
          </mxGeometry>
        </mxCell>
        <mxCell id="HZPcw3k5yMHCah8m_Nfg-62" value="Deploy to GCP" style="text;html=1;align=center;verticalAlign=middle;resizable=0;points=[];autosize=1;" vertex="1" parent="1">
          <mxGeometry x="100" y="110" width="100" height="20" as="geometry" />
        </mxCell>
        <mxCell id="HZPcw3k5yMHCah8m_Nfg-67" value="BUILD [GCR.IO]" style="text;html=1;strokeColor=none;fillColor=#00FF80;align=center;verticalAlign=middle;whiteSpace=wrap;rounded=0;" vertex="1" parent="1">
          <mxGeometry x="320" y="42" width="80" height="28" as="geometry" />
        </mxCell>
        <mxCell id="HZPcw3k5yMHCah8m_Nfg-73" value="Cloud Build" style="html=1;fillColor=#5184F3;strokeColor=none;verticalAlign=top;labelPosition=center;verticalLabelPosition=bottom;align=center;spacingTop=-6;fontSize=11;fontStyle=1;fontColor=#999999;shape=mxgraph.gcp2.hexIcon;prIcon=container_builder" vertex="1" parent="1">
          <mxGeometry x="670" y="138" width="66" height="58.5" as="geometry" />
        </mxCell>
        <mxCell id="HZPcw3k5yMHCah8m_Nfg-81" value="" style="rounded=1;whiteSpace=wrap;html=1;strokeColor=#0000CC;fillColor=#FFFFFF;" vertex="1" parent="1">
          <mxGeometry x="430" y="22.5" width="160" height="237.5" as="geometry" />
        </mxCell>
        <mxCell id="HZPcw3k5yMHCah8m_Nfg-4" value="Container Register&lt;br&gt;" style="shape=mxgraph.gcp.compute.container_registry;html=1;fillColor=#4387FD;gradientColor=#4683EA;strokeColor=none;verticalLabelPosition=bottom;verticalAlign=top;align=center;" vertex="1" parent="1">
          <mxGeometry x="470" y="50" width="80" height="70" as="geometry" />
        </mxCell>
        <mxCell id="HZPcw3k5yMHCah8m_Nfg-3" value="Docker Build" style="shape=image;html=1;verticalAlign=top;verticalLabelPosition=bottom;labelBackgroundColor=#ffffff;imageAspect=0;aspect=fixed;image=https://cdn3.iconfinder.com/data/icons/social-media-2169/24/social_media_social_media_logo_docker-128.png" vertex="1" parent="1">
          <mxGeometry x="475" y="168" width="70" height="70" as="geometry" />
        </mxCell>
        <mxCell id="HZPcw3k5yMHCah8m_Nfg-87" value="" style="endArrow=classic;html=1;entryX=0;entryY=0.25;entryDx=0;entryDy=0;" edge="1" parent="1" target="HZPcw3k5yMHCah8m_Nfg-81">
          <mxGeometry width="50" height="50" relative="1" as="geometry">
            <mxPoint x="305" y="81" as="sourcePoint" />
            <mxPoint x="355" y="31" as="targetPoint" />
          </mxGeometry>
        </mxCell>
        <mxCell id="HZPcw3k5yMHCah8m_Nfg-90" value="" style="endArrow=classic;html=1;entryX=0.175;entryY=0.5;entryDx=0;entryDy=0;entryPerimeter=0;" edge="1" parent="1" target="HZPcw3k5yMHCah8m_Nfg-73">
          <mxGeometry width="50" height="50" relative="1" as="geometry">
            <mxPoint x="590" y="166.25" as="sourcePoint" />
            <mxPoint x="640" y="116.25" as="targetPoint" />
          </mxGeometry>
        </mxCell>
        <mxCell id="HZPcw3k5yMHCah8m_Nfg-91" value="" style="endArrow=classic;html=1;entryX=0.45;entryY=0.14;entryDx=0;entryDy=0;entryPerimeter=0;" edge="1" parent="1" source="HZPcw3k5yMHCah8m_Nfg-73" target="HZPcw3k5yMHCah8m_Nfg-5">
          <mxGeometry width="50" height="50" relative="1" as="geometry">
            <mxPoint x="686" y="300" as="sourcePoint" />
            <mxPoint x="736" y="250" as="targetPoint" />
            <Array as="points">
              <mxPoint x="703" y="300" />
              <mxPoint x="523" y="300" />
            </Array>
          </mxGeometry>
        </mxCell>
        <mxCell id="HZPcw3k5yMHCah8m_Nfg-92" value="" style="endArrow=none;dashed=1;html=1;" edge="1" parent="1" source="HZPcw3k5yMHCah8m_Nfg-3">
          <mxGeometry width="50" height="50" relative="1" as="geometry">
            <mxPoint x="460" y="170" as="sourcePoint" />
            <mxPoint x="510" y="120" as="targetPoint" />
          </mxGeometry>
        </mxCell>
      </root>
    </mxGraphModel>
  </diagram>
</mxfile>
